# xmcd
# 
# Track frame offsets:
#     150
#     13110
#     25392
#     36755
#     63720
#     77095
#     90832
#     104647
#     116610
#     126725
#     146952
#     159155
#     168420
#     184067
# 
# Disc length: 2621
# 
# Revision: 4
# Processed by: cddbd v1.5.2PL0 Copyright (c) Steve Scherf et al.
# Submitted via: BonkEnc v1.0.8
# 
DISCID=c10a3b0e
DTITLE=Various Artist - Blues Festival CD 3
DYEAR=1988
DGENRE=Blues
TTITLE0=Big Joe Turner - Corrine Corrina
TTITLE1=Jimmy Witherspoon - Every Day
TTITLE2=Johnny Otis - C. C. Rider
TTITLE3=Lightnin' Hopkins - Cotton
TTITLE4=Wynonie Harris - 'Man, Have I Got Troubles
TTITLE5=Roy Brown - Hard Luck Blues
TTITLE6=Muddy Waters - I Want You To Love Me
TTITLE7=Howlin' Wolf - Brownskin Woman
TTITLE8=John Lee Hooker - Dimpless
TTITLE9=Big Bill Broonzy - Louise, Louise Blues
TTITLE10=T-Bone Walker - Midnight Blues
TTITLE11=Fats Domino - I'm In Love Again
TTITLE12=Jimmy Rushing - Jimmy's Blues
TTITLE13=Bo Diddley - I'm A Man
EXTD=YEAR: 1988
EXTT0=
EXTT1=
EXTT2=
EXTT3=
EXTT4=
EXTT5=
EXTT6=
EXTT7=
EXTT8=
EXTT9=
EXTT10=
EXTT11=
EXTT12=
EXTT13=
PLAYORDER=
